<?xml version="1.0" encoding="UTF-8" standalone="no"?>
<!-- Uploaded to: SVG Repo, www.svgrepo.com, Generator: SVG Repo Mixer Tools -->

<svg
   fill="#000000"
   width="800px"
   height="800px"
   viewBox="0 0 32 32"
   version="1.1"
   id="svg1"
   sodipodi:docname="circle-thin-svgrepo-com.svg"
   inkscape:version="1.3.2 (091e20e, 2023-11-25, custom)"
   xmlns:inkscape="http://www.inkscape.org/namespaces/inkscape"
   xmlns:sodipodi="http://sodipodi.sourceforge.net/DTD/sodipodi-0.dtd"
   xmlns="http://www.w3.org/2000/svg"
   xmlns:svg="http://www.w3.org/2000/svg">
  <defs
     id="defs1" />
  <sodipodi:namedview
     id="namedview1"
     pagecolor="#ffffff"
     bordercolor="#000000"
     borderopacity="0.25"
     inkscape:showpageshadow="2"
     inkscape:pageopacity="0.0"
     inkscape:pagecheckerboard="0"
     inkscape:deskcolor="#d1d1d1"
     inkscape:zoom="1.01625"
     inkscape:cx="400"
     inkscape:cy="400"
     inkscape:window-width="1920"
     inkscape:window-height="1009"
     inkscape:window-x="-8"
     inkscape:window-y="-8"
     inkscape:window-maximized="1"
     inkscape:current-layer="svg1" />
  <path
     d="M16,32A16,16,0,1,0,0,16,16,16,0,0,0,16,32ZM16,2A14,14,0,1,1,2,16,14,14,0,0,1,16,2Z"
     id="path1" />
  <path
     style="fill:#ececec;stroke-width:0.98401"
     d="M 384.25584,749.22093 C 332.98105,746.09679 290.06553,734.97548 246.20143,713.44492 162.44795,672.33478 99.726148,601.0958 69.388172,512.62171 26.204675,386.68645 58.585932,247.49901 153.04247,153.04247 260.2262,45.858743 422.37846,20.005918 557.77462,88.5138 c 100.41307,50.8071 170.0912,146.64013 187.48276,257.85766 5.80587,37.12813 5.29844,77.75304 -1.44301,115.526 -10.06182,56.37721 -35.29723,111.78504 -71.3017,156.55272 -59.13097,73.52301 -143.99418,119.52841 -238.56433,129.32871 -10.64771,1.10343 -40.86041,1.98018 -49.6925,1.44204 z"
     id="path2"
     transform="scale(0.04)" />
</svg>
